<?xml version="1.0" encoding="UTF-8" standalone="no"?>
<!DOCTYPE svg PUBLIC "-//W3C//DTD SVG 1.1//EN" "http://www.w3.org/Graphics/SVG/1.1/DTD/svg11.dtd">
<svg width="100%" height="100%" viewBox="0 0 1500 1500" version="1.1" xmlns="http://www.w3.org/2000/svg" xmlns:xlink="http://www.w3.org/1999/xlink" xml:space="preserve" xmlns:serif="http://www.serif.com/" style="fill-rule:evenodd;clip-rule:evenodd;stroke-linejoin:round;stroke-miterlimit:2;">
    <g transform="matrix(3.13993,0,0,3.13993,-771.439,-223.306)">
        <path d="M270,243L269.602,241.329L269.649,240.841L269.629,239.84L269.958,237.975L270.522,235.998L271.586,233L272.309,231L273.344,228L274.45,225L276.15,221C276.865,219.332 277.551,217.65 278.309,216L280.742,211L282.142,208C282.744,206.663 283.313,205.312 283.969,204C284.818,202.302 285.786,200.666 286.695,199L288.306,196C289.045,194.651 289.82,193.324 290.603,192L293.601,187C294.614,185.322 295.625,183.643 296.695,182C298.249,179.614 299.924,177.316 301.579,175C303.011,172.995 304.417,170.971 305.895,169C307.68,166.62 309.543,164.296 311.435,162L314.87,158C316.303,156.334 317.695,154.63 319.17,153C320.409,151.63 321.703,150.312 323.004,149L327,145L331,141.004C332.312,139.704 333.627,138.406 335,137.171C337.25,135.145 339.652,133.297 342,131.389C344.002,129.762 345.957,128.075 348,126.5C349.635,125.24 351.334,124.066 353,122.849L359,118.427C360.637,117.259 362.303,116.134 364,115.054C366.294,113.594 368.635,112.203 371,110.861L375,108.694L380,105.861L383,104.259C384.645,103.416 386.312,102.614 388,101.861L393,99.695L397,97.861C398.655,97.145 400.326,96.472 402,95.8L406,94.228L408,93.516L412,92.283L416,90.999C418.33,90.23 420.648,89.421 423,88.721C424.983,88.13 426.99,87.62 429,87.13C430.99,86.644 432.988,86.193 435,85.805L438,85.275L442,84.729L446,84.13L449,83.715C451.68,83.267 454.293,82.463 457,82.174C459.99,81.854 463.005,82.116 466,81.911C468.347,81.75 470.652,81.25 473,81.09C474.331,80.998 475.667,81.004 477,81.001L482,81L487,81C488.332,81.001 489.669,80.981 491,81.039C492.006,81.083 493.001,81.162 494,81.286L497,81.715L499,81.925L502,82.166L507,82.83C508.996,83.023 511.004,82.976 513,83.17C514.341,83.3 515.667,83.542 517,83.729L521,84.275L524,84.805C526.014,85.193 528.017,85.632 530,86.154L535,87.576L542,89.428C543.681,89.907 545.341,90.453 547,91.001L552,92.667L560,95.333C562.011,96.006 564.028,96.667 566,97.45L570,99.15C571.669,99.864 573.35,100.551 575,101.309C577.363,102.393 579.675,103.591 582,104.753L586,106.753C587.673,107.591 589.354,108.417 591,109.309C593.717,110.782 596.352,112.408 599,114C600.674,115.006 602.35,116.008 604,117.053C605.684,118.12 607.341,119.229 609,120.333L613,123.036C614.015,123.75 615.015,124.482 616,125.236L619,127.601L623,130.8L627,134.001C628.69,135.363 630.386,136.718 632,138.171C633.723,139.721 635.357,141.366 637,143.001L642,148L645.999,152C647.633,153.644 649.275,155.28 650.83,157C652.01,158.305 653.125,159.666 654.271,161C655.699,162.663 657.158,164.299 658.54,166C659.871,167.638 661.13,169.333 662.424,171C663.711,172.659 665.024,174.297 666.255,176C667.202,177.311 668.1,178.656 668.999,180L671.667,184L674.947,189L677.424,193C678.666,194.995 679.962,196.958 681.127,199C681.875,200.311 682.562,201.654 683.244,203L685.247,207L688.244,213L689.688,216L690.548,218L692.424,223L693.947,227L695.667,232C696.446,234.329 697.246,236.654 697.974,239C698.49,240.657 698.949,242.33 699.421,244L700.525,248L701.651,253L702.576,257C702.933,258.66 703.283,260.325 703.565,262L704.286,267C704.454,268.008 704.664,269.003 704.884,270L705.537,273L705.841,275L706.155,278C706.355,279.669 706.671,281.326 706.83,283C707.115,285.994 706.884,289.003 707.089,292L707.286,294L707.714,297C707.844,297.998 707.917,298.995 707.961,300C708.019,301.331 707.999,302.668 708,304L708,310L707.999,316C707.996,317.333 708.002,318.669 707.911,320C707.75,322.348 707.25,324.652 707.089,327C706.884,329.997 707.115,333.006 706.83,336C706.671,337.674 706.355,339.33 706.155,341L705.718,345L705.08,349L704.414,353C704.133,354.667 703.884,356.342 703.551,358L702.87,361C702.459,362.672 702.029,364.339 701.576,366L700.735,369L699.255,375C698.785,376.685 698.217,378.341 697.667,380L694.333,390L692.947,394C692.206,396.019 691.4,398.014 690.576,400L688.85,404L686.691,409C686.082,410.35 685.411,411.674 684.752,413L683.247,416C682.409,417.673 681.582,419.353 680.691,421C679.779,422.686 678.802,424.336 677.85,426L675.55,430C673.906,432.726 672.099,435.353 670.333,438C668.994,440.008 667.666,442.024 666.279,444C664.853,446.031 663.367,448.02 661.87,450C659.823,452.708 657.744,455.399 655.562,458L653.844,460L651.155,463L647.714,467C646.819,468.022 645.9,469.019 644.961,470L642.996,471.996C641.685,473.297 640.37,474.591 639,475.83L634,480.166L630,483.834C628.359,485.281 626.679,486.679 625,488.079L622,490.551L619,492.87C617.345,494.119 615.687,495.367 614,496.573C612.356,497.748 610.679,498.875 609,499.999C606.684,501.55 604.367,503.102 602,504.575C600.35,505.602 598.678,506.594 597,507.576L594,509.281C591.345,510.791 588.719,512.347 586,513.741C584.354,514.584 582.685,515.378 581,516.139L577,517.861C574.318,519.056 571.723,520.444 569,521.547C566.702,522.478 564.327,523.202 562,524.053L558,525.576C556.675,526.073 555.341,526.544 554,526.996C552.673,527.444 551.341,527.877 550,528.28L546,529.421L543,530.29L540,531.116L533,532.884L527,534.525C525.349,534.935 523.678,535.281 522,535.565C520.34,535.846 518.667,536.036 517,536.271C515.667,536.459 514.341,536.7 513,536.83C511.004,537.024 508.996,536.977 507,537.17C505.995,537.267 504.999,537.431 504,537.576L502,537.83C500.673,537.976 499.333,537.98 498,537.996L495,538L490,538L486.059,537.966L484.321,537.839L483.517,537.642L483.086,537.585L482,537L483.671,536.902L484.159,536.833L485.16,536.714C486.441,536.527 487.714,536.305 489.002,536.166L492,535.925L494,535.715L498,535.17C499.996,534.977 502.004,535.024 504,534.83C505.341,534.7 506.667,534.458 508,534.271L512,533.728L516,533.08L521,532.247L525,531.551C526.007,531.357 527.004,531.112 528,530.869C529.628,530.471 531.251,530.05 532.84,529.511L534.329,528.912L536,528L534.329,528.187L533.841,528.29L532.84,528.464L530.976,528.883L530,529.113L528.059,529.502L526.321,529.666L525.517,529.552L525.086,529.543L524,529L525.671,528.373L526.159,528.268L527.16,527.987C528.776,527.611 530.396,527.268 532,526.846L538,525.151L543,523.848C544.344,523.487 545.675,523.081 547,522.656C548.677,522.119 550.346,521.551 552,520.947L557,519.053C559.327,518.202 561.696,517.465 564,516.55L568,514.85C569.669,514.136 571.35,513.449 573,512.691C574.686,511.917 576.341,511.076 578,510.247C579.674,509.41 581.353,508.582 583,507.691L588,504.86C589.995,503.747 592.037,502.717 594,501.547C596.382,500.127 598.659,498.539 601,497.053L605,494.565C606.362,493.698 607.694,492.79 609,491.842C611.392,490.105 613.691,488.244 616,486.4L622,481.565L626,478.13C627.666,476.697 629.37,475.305 631,473.83C633.069,471.959 635.028,469.972 637,468C638.651,466.349 640.318,464.709 641.911,463C643.722,461.055 645.399,458.994 647.155,457L649.844,454L651.562,452C653.744,449.399 655.823,446.708 657.87,444C659.121,442.346 660.367,440.687 661.573,439C662.748,437.356 663.875,435.679 664.999,434L667.654,430.004L668.917,428.039C669.618,426.884 670.333,425.715 670.764,424.424L671.035,423.576C671.278,422.689 671.464,421.782 671.764,420.91L672.553,418.985L673.054,417.996L673.594,416.999L675.219,414L678.247,408C679.075,406.34 679.917,404.686 680.691,403C681.449,401.35 682.133,399.668 682.85,398L684.576,394L685.796,391C686.583,389.013 687.304,387.002 688.05,385L689.947,380C690.671,378.018 691.35,376.016 691.974,374C692.385,372.675 692.763,371.341 693.116,370L693.884,367L695.525,361L696.475,357L697.576,353C697.938,351.675 698.275,350.346 698.55,349L699.079,346L699.728,342L700.13,339L700.834,334L701.166,330C701.381,327.994 701.773,326.015 701.911,324C702.116,321.005 701.884,317.995 702.089,315C702.158,313.993 702.285,312.999 702.424,312L702.83,309C702.957,307.669 702.985,306.336 702.996,305L702.985,302C702.961,301 702.939,299.996 702.83,299L702.576,297L702.286,295C702.162,294.001 702.083,293.006 702.039,292L702.004,290L701.996,286C701.987,285 701.979,283.998 701.911,283C701.773,280.985 701.381,279.006 701.166,277L700.924,274C700.834,273.003 700.727,272.009 700.542,271.025L700.126,269.16L699.809,268.159L699.683,267.671L699,266L699.042,267.671L699.17,269.16L699.83,274C699.939,274.993 699.971,276.001 699.971,277C699.971,278.34 699.881,279.671 699.715,281L699.319,283.975L699.25,285.84L699.431,287.329L700,289L700.103,287.478L700.359,286.359L700.415,286.04L701,285C700.994,287.003 701.024,289.008 700.83,291.005L700.286,295C700.162,295.999 700.083,296.994 700.039,298L700.001,301L700,304L700,314L699.996,318C699.987,319 699.98,320.002 699.911,321C699.84,322.005 699.729,323.006 699.561,324C699.166,326.338 698.605,328.649 698.289,331C698.02,332.993 697.969,335.006 697.714,337L697.246,340L696.414,345C696.022,347.336 695.683,349.684 695.182,352C694.965,353.007 694.732,354.012 694.441,355L692.909,360C692.442,361.656 692.049,363.332 691.626,365C691.115,367.012 690.588,369.017 689.974,371C689.352,373.011 688.666,375.003 688,377C687.11,379.669 686.237,382.344 685.308,385L683.847,389C683.515,389.992 683.215,390.98 682.978,392L682.576,394L682.135,396C681.881,397.027 681.508,398.02 681.113,399C680.562,400.365 679.894,401.681 679.244,403L677.247,407L675.247,411C674.409,412.673 673.584,414.354 672.691,416C671.403,418.376 669.99,420.683 668.6,423C667.192,425.347 665.799,427.706 664.305,430C662.751,432.386 661.076,434.684 659.421,437C657.745,439.345 656.096,441.709 654.346,444C652.529,446.378 650.649,448.708 648.725,451L646.13,454C644.401,456.01 642.718,458.059 640.911,460C638.997,462.054 636.984,464.015 635,466C632.682,468.319 630.382,470.657 628,472.91C626.712,474.129 625.354,475.267 624,476.41L618,481.414C616.345,482.788 614.71,484.191 613,485.497C611.056,486.982 609.009,488.324 607,489.717L603,492.485L599,495.047L595,497.551L590,500.421L587,502.139L584,503.742L579,506.247L575.001,508.242C574.026,508.716 573.056,509.189 572.059,509.614L570.321,510.201L569.517,510.262L569.086,510.356L568,510L569.671,508.989L571.16,508.188L576.998,505.245C578.296,504.588 579.581,503.918 580.84,503.188L582.329,502.245L584,501L582.478,501.33L581.359,501.362L581.04,501.393L580,501L581.671,500.327L582.159,500.071L583.16,499.59C584.462,498.896 585.734,498.149 587.002,497.395C588.685,496.394 590.349,495.362 592,494.308L595,492.333C598.04,490.315 601.078,488.293 604,486.105C607.421,483.543 610.719,480.818 614,478.08L618,474.718L622,471.155C624.332,469.102 626.761,467.16 628.961,464.961C629.915,464.006 630.816,463.007 631.714,461.999L633.424,460L636.05,457L638.704,454C640.059,452.372 641.358,450.702 642.621,449.002C643.558,447.741 644.49,446.475 645.35,445.16L645.927,444.159L646.241,443.671L647,442L640.995,448.005C639.344,449.653 637.708,451.32 636,452.91C634.704,454.117 633.363,455.27 632.005,456.406L629.16,458.769L628.159,459.522L627.671,459.929L626,461L626.144,459.708L626.144,458.292L626,457L627,456L628.239,455.778L628.637,455.526L629.45,455.1C630.727,454.172 631.867,453.084 632.977,451.966C635.152,449.775 637.115,447.38 639.076,445C639.894,444.008 640.723,443.024 641.5,442C642.498,440.684 643.457,439.341 644.421,438L648.71,432L650.883,429C652.097,427.349 653.337,425.718 654.456,424C655.514,422.375 656.446,420.674 657.424,419L660.397,414C661.179,412.677 661.968,411.356 662.691,410C663.924,407.691 665.077,405.341 666.247,403C667.41,400.674 668.592,398.357 669.691,396C670.152,395.013 670.571,394.006 670.988,393C671.81,391.02 672.588,389.02 673.308,387L675.691,380C676.397,377.999 677.161,376.022 677.806,374L678.706,371C679.193,369.338 679.675,367.675 680.116,366L681.873,359C682.703,355.679 683.552,352.364 684.195,349L684.711,346L684.914,344L685.025,342C685.094,340.994 685.16,339.996 685.325,339C685.605,337.299 686.13,335.661 686.576,334C687.106,332.021 687.607,330.042 687.826,328C687.969,326.672 687.988,325.334 687.996,324L688,319L688,306L688.001,302C688.011,300.331 688.012,298.664 688.17,297L688.7,293C688.803,291.997 688.847,291.008 688.79,290C688.734,288.993 688.565,287.991 688.384,287C688.021,285.001 687.554,283.016 687.289,281L687.086,279C686.983,277.33 686.946,275.654 686.675,274C686.454,272.645 686.067,271.331 685.742,270C685.498,269.004 685.285,268.008 685.095,267L684.754,265L684.079,261L683.551,258C683.078,255.648 682.458,253.326 681.873,251L680.573,246L679.975,244L678.424,239L676.971,234C676.435,232.313 675.832,230.649 675.188,229C674.664,227.656 674.128,226.31 673.522,225L671.59,221L670.167,218L668.742,215L666.247,210C665.408,208.327 664.584,206.646 663.691,205C662.218,202.282 660.59,199.65 659,197L656.6,193C655.583,191.319 654.57,189.637 653.484,188C652.586,186.648 651.643,185.325 650.706,184C649.281,181.985 647.842,179.982 646.37,178L640.373,170C638.588,167.625 636.835,165.21 634.826,163.015C633.92,162.025 632.972,161.08 631.985,160.17C630.693,158.978 629.326,157.869 628,156.715C626.975,155.822 625.982,154.899 625,153.961C621.648,150.755 618.502,147.337 615,144.289C613.699,143.157 612.351,142.075 611,141.004C608.694,139.175 606.353,137.394 604,135.627C600.705,133.151 597.43,130.643 594,128.355C591.389,126.614 588.69,125.014 586,123.4C583.683,122.01 581.376,120.597 579,119.309C576.7,118.062 574.34,116.923 572,115.753L566,112.756L563,111.312L561,110.452L557,108.95L555,108.192L551,106.692L545,104.667C542.676,103.893 540.356,103.1 538,102.427C536.344,101.955 534.67,101.546 533,101.127C530.671,100.542 528.345,99.942 526,99.424L522,98.6L517,97.6L511,96.4L507,95.576C504.675,95.066 502.373,94.428 500,94.174C498.34,93.996 496.667,94.009 495,94.001L489,94C487.334,93.997 485.663,94.024 484,93.911C482.993,93.842 481.999,93.715 481,93.576L478,93.17C476.669,93.043 475.336,93.016 474,93.004L470,93L467,93.004C466.001,93.013 464.996,93.012 464,93.104L463,93.209L461,93.595L458,94.445C456.023,94.98 454.029,95.424 452,95.715L448,96.155L443,96.87L440,97.286L438,97.665C436.658,97.946 435.33,98.295 434,98.626L430,99.626C427.663,100.211 425.317,100.766 423,101.427C421.319,101.907 419.66,102.453 418,103.001L413,104.692C409.967,105.773 406.989,107.004 404,108.2L399,110.201C397.322,110.878 395.645,111.555 394,112.309L391,113.756L387,115.753C384.986,116.763 382.968,117.764 381,118.862C378.633,120.182 376.322,121.604 374,123L370,125.425C367.292,127.125 364.617,128.883 362,130.721C359.628,132.385 357.318,134.135 355,135.873C352.987,137.383 350.955,138.874 349,140.46C347.298,141.841 345.662,143.301 344,144.729C342.666,145.875 341.305,146.99 340,148.17C337.234,150.671 334.666,153.38 332,155.985L329.015,158.83L326.17,161.424L324.425,163.17C323.261,164.427 322.126,165.712 321,167.004C319.014,169.282 317.077,171.602 315.235,174C313.977,175.639 312.789,177.328 311.576,179L306.427,186C305.253,187.644 304.124,189.319 303.004,191C302.127,192.316 301.261,193.641 300.453,195C298.715,197.921 297.307,201.014 295.691,204L292.309,210C291.064,212.302 289.921,214.659 288.753,217C287.762,218.987 286.76,220.968 285.862,223C284.843,225.305 283.933,227.66 283,230L281.425,234C280.444,236.637 279.525,239.303 278.721,242C277.737,245.302 276.991,248.668 276.116,252L274.475,258L273.576,262L272.449,267L271.921,270L271.272,274L270.87,277L270.155,282L269.845,285L269.285,289C269.162,289.999 269.084,290.994 269.039,292L268.997,295C268.981,296.336 268.957,297.669 268.83,299L268.424,302C268.285,302.999 268.16,303.993 268.09,305C267.998,306.312 268.011,307.628 267.967,308.941L267.84,310.679L267.642,311.483L267.585,311.914L267,313L267,305L267.004,302C267.013,301 267.021,299.998 267.09,299C267.25,296.652 267.749,294.347 267.91,292C268.048,290.003 267.952,287.997 268.09,286L268.285,284L268.718,281L269.282,276L269.754,273L270.246,270L270.728,267L271.285,263C271.452,261.992 271.662,260.996 271.888,260C272.345,257.988 272.881,255.991 273.424,254L274.266,251L275.558,246L276.498,243L277.414,240L278.344,237L278.997,235.002C279.397,233.733 279.818,232.469 280.074,231.16L280.144,230.159L280.231,229.671L280,228L279.646,229.671L279.502,230.159L279.234,231.16L278.64,233.025L277.576,236L276.079,240C275.514,241.648 275.057,243.326 274.579,245L273.421,249L272.579,252L271.475,256L270.35,261C270.05,262.332 269.711,263.657 269.46,265C269.211,266.327 269.057,267.664 268.869,269L268.386,272L267.001,279L266.439,282C266.232,283.329 266.089,284.656 266.039,286C265.976,287.668 265.989,289.336 265.83,291L265.169,296L264.831,301C264.713,302.342 264.445,303.664 264.285,305C264.167,305.994 264.09,306.983 264.025,307.981C263.967,308.88 263.949,309.784 263.84,310.679L263.642,311.483L263.585,311.914L263,313L263,295L263.001,289C263.004,287.667 262.998,286.33 263.09,285C263.205,283.318 263.484,281.663 263.754,280L264.424,276L265.386,271L265.725,269L266.275,265L266.614,263C267.164,259.973 267.884,256.984 268.627,254L269.63,250L270.438,247C270.941,245.312 271.553,243.663 272.136,242.002L272.756,240.025L273.154,238.16L273.257,236.671L273,235L272.646,236.671L272.503,237.154L271.967,238.986L271.354,240.684L270.957,241.485L270.783,241.914L270,243ZM691,246L691,249L691.579,248.125L691.579,246.875L691,246ZM533,90L533.909,90.585L534.347,90.653L536,91L535.091,90.415L534.653,90.347L533,90ZM524,88L525.086,88.683L525.515,88.809L526.316,89.126L528.014,89.542L528.858,89.7L530.329,89.901L532,90L530.914,89.232L529.684,88.735L527.986,88.32L527.142,88.184L525.671,88.042L524,88ZM675,422L674.268,423.671L673.981,424.159L673.445,425.16L671.05,429.002C670.065,430.589 669.096,432.182 668.231,433.84L667.541,435.329L667,437L668.317,435.914L668.661,435.483L669.394,434.679L670.664,432.941C671.529,431.656 672.367,430.353 673.123,429.001C673.66,428.039 674.153,427.064 674.603,426.059L675.201,424.321L675.262,423.517L675.357,423.086L675,422ZM628,479C626.952,480.003 625.934,481.036 624.84,481.99C622.613,483.929 620.291,485.75 618,487.611C615.677,489.499 613.415,491.469 611.002,493.242C609.75,494.162 608.453,495.016 607.16,495.876L604,498L605.086,498.344L605.517,498.234L606.321,498.137L608.059,497.408L609.018,496.877L611.001,495.637L613,494.254C616.469,491.764 619.718,488.977 622.999,486.25L626.851,483.024L628.39,481.54L629.005,480.739L629.346,480.356L630,479L628,479ZM537,91L538.082,91.768L538.492,91.917L539.276,92.265L540.9,92.691L541.348,92.803L543,93L541.918,92.103L541.508,91.953L540.724,91.58C540.045,91.372 539.352,91.231 538.652,91.113L537,91ZM595.667,117.333L596,117.667L596.333,117.667L596,117.333L595.667,117.333ZM660,445L658.776,446.671C657.668,448.134 656.54,449.582 655.38,451.005C653.998,452.7 652.557,454.342 651.13,456C649.401,458.01 647.718,460.059 645.911,462C644.639,463.365 643.314,464.678 642,466L639.059,468.975L637.321,470.84L636.517,471.841L636.086,472.329L635,474L636.671,473.346L637.159,473.005L638.16,472.39L640.025,470.851C641.382,469.606 642.695,468.314 643.985,466.999C644.951,466.016 645.906,465.023 646.83,464C648.009,462.694 649.126,461.335 650.271,460L654.565,455L656.98,452.001L657.742,451.005L659.087,449.059L659.981,447.321L660.14,446.517L660.284,446.086L660,445ZM547.667,94.333L548,94.667L548.333,94.667L548,94.333L547.667,94.333ZM698,260L698,265L698.57,263.933L698.608,263.542L698.746,262.817L698.608,261.458L698.57,261.067L698,260ZM665,438L663.921,439.645L663.161,441L662.775,441.886L662.529,442.355L662,444L663.424,442.918L663.722,442.502L664.383,441.738L665.121,440.262L665.224,439.498L665.342,439.082L665,438ZM593.667,505.333L594,505.667L594.333,505.667L594,505.333L593.667,505.333ZM601.667,500.333L602,500.667L602.333,500.667L602,500.333L601.667,500.333ZM702,353L702,356L702.579,355.125L702.579,353.875L702,353ZM515,86L515.909,86.585L516.347,86.653L518,87L517.091,86.415L516.653,86.347L515,86ZM274.333,233.667L274.333,234.333L274.667,234.333L274.667,233.667L274.333,233.667ZM603,122L604.04,123.21L604.359,123.441L605.478,124.272L607,125L605.96,123.67L605.641,123.438L604.522,122.607L603,122ZM284.333,218.667L284.333,219.333L284.667,219.333L284.667,218.667L284.333,218.667ZM550,95L551.086,95.942L551.517,96.15L552.321,96.63C553.859,97.34 555.428,97.974 557.001,98.6L559.975,99.757L561.84,100.39L562.841,100.632L563.329,100.775L565,101L563.914,100.002L563.483,99.77L562.679,99.25C561.485,98.627 560.24,98.113 558.995,97.603C557.684,97.067 556.362,96.561 555.025,96.093L553.16,95.529L551.671,95.199L550,95ZM281.333,226.667L281.333,227L281.667,227.333L281.667,226.667L281.333,226.667ZM276,228L275.415,229.494L275.347,230L275,232L275.861,230.975L275.955,230.62L276.259,230L276.367,229.025L276,228ZM544.667,93.333L545,93.667L545.333,93.667L545,93.333L544.667,93.333ZM282.333,223.667L282.333,224L282.667,224.333L282.667,223.667L282.333,223.667ZM585.667,111.333L586,111.667L586.333,111.667L586,111.333L585.667,111.333ZM663,183L663.426,184.671L663.975,186.16L664.825,188.025L665.324,189.005L666.428,191L669.988,197L671.691,200C672.749,201.981 673.748,203.992 674.753,206L676.247,209C677.075,210.66 677.917,212.314 678.691,214C679.449,215.65 680.136,217.331 680.85,219L682.551,223L684.424,228L685.947,232C686.544,233.657 687.117,235.323 687.656,237C688.506,239.646 689.241,242.327 690,245L690.483,243.914L690.46,243.483L690.514,242.679L690.217,240.941L689.42,237.999C688.955,236.328 688.497,234.653 687.971,233C687.326,230.971 686.575,228.982 685.797,227C684.747,224.325 683.679,221.654 682.576,219L680.85,215C680.133,213.332 679.449,211.65 678.691,210C677.917,208.314 677.076,206.659 676.247,205C675.41,203.326 674.572,201.652 673.691,200L671.424,196L670.306,194C669.402,192.327 668.529,190.635 667.549,189.005C666.791,187.744 665.986,186.51 665.12,185.321L664.454,184.517L664.137,184.086L663,183ZM627,141L628.347,142.653L628.674,143.091L630,144L629.091,142.674L628.653,142.347L627,141ZM277.333,225.667L277.333,226L277.667,226.333L277.667,225.667L277.333,225.667Z" style="fill:rgb(206,194,173);"/>
    </g>
    <g transform="matrix(3.13993,0,0,3.13993,-771.439,-223.306)">
        <path d="M458,196L456.884,197.671L456.149,199.16L455.458,201.025C455.155,202.01 454.891,203.003 454.63,204C454.198,205.659 453.808,207.329 453.424,209L453,211L452.35,214L451.424,218L450.349,223L448.884,229C448.407,231.001 448.018,233.027 447.431,235C447.027,236.353 446.521,237.67 446.049,239L444.333,244L442.308,250C441.468,252.358 440.557,254.698 439.573,257C438.556,259.377 437.413,261.695 436.244,264L434.691,267C433.005,270.064 431.184,273.049 429.309,276L427.407,279L426.859,280L426.157,282L426.099,283L426.266,284L427.203,286L428.639,287.996C429.727,289.333 430.844,290.632 432.09,291.826C433.611,293.285 435.28,294.577 437,295.791C438.297,296.706 439.636,297.563 441,298.373C441.982,298.957 442.978,299.517 444,300.029C445.624,300.843 447.309,301.528 449,302.188C451.938,303.336 454.934,304.353 458,305.102C459.981,305.586 461.989,305.913 464,306.246C465.329,306.467 466.659,306.7 468,306.83C469.994,307.023 471.999,306.997 474,307L481,307L486,306.999C487.333,306.996 488.669,307.002 490,306.91C492.014,306.773 493.997,306.395 496,306.155L499,305.845L504,305.13C505.339,304.938 506.678,304.782 508,304.486C510.04,304.029 512.019,303.324 514,302.667C516.665,301.783 519.321,300.867 522,300.025C523.667,299.501 525.349,299.03 527,298.456C528.369,297.98 529.708,297.377 531,296.723L532.995,295.647L534.945,294.363L535.867,293.61L537.486,291.895L538.682,289.985C539.307,288.739 539.632,287.374 539.811,286C539.941,285.004 539.952,284.002 539.985,283L540,280L539.999,275C539.991,273.333 540.004,271.66 539.826,270L539.536,268L538.883,265L538.449,263L538.084,261L537.754,259L537.272,256L536.565,251C536.284,249.326 535.933,247.664 535.6,246L534.576,241C534.057,238.654 533.473,236.32 532.849,234L531.475,229L530.349,224C529.808,221.655 529.22,219.319 528.576,217L527.421,213C526.947,211.331 526.49,209.657 525.974,208L524.999,205L522.534,197.671L522,196L520,196L519.154,197.671L517.935,200.045L515.696,205L514.33,208C513.621,209.647 513.016,211.334 512.355,213L510.732,217L508.907,221.84L508.587,222.841L508.414,223.329L508,225L503.955,224.999C502.637,224.995 501.316,225.001 500,224.91C497.652,224.749 495.348,224.25 493,224.09C491.669,223.998 490.333,224.004 489,224.001L483,224L479,223.995L477.005,223.941L475.058,223.682L474.144,223.397L472.563,222.397C471.317,221.239 470.839,219.545 470.298,217.995L469.646,216L468.575,213L467.396,210L466.138,207C465.69,205.989 465.217,204.991 464.726,204L463.649,202.005L462.387,200.059L460.948,198.321L459.626,197.086L458,196Z" style="fill:rgb(206,194,173);fill-rule:nonzero;"/>
    </g>
    <g transform="matrix(3.13993,0,0,3.13993,-771.439,-223.306)">
        <path d="M268.333,243.667L268.333,244L268.667,244.333L268.667,244L268.333,243.667Z" style="fill:rgb(206,194,173);fill-rule:nonzero;"/>
    </g>
    <g transform="matrix(3.13993,0,0,3.13993,-771.439,-223.306)">
        <path d="M464,285L463.902,283.329L463.833,282.841L463.714,281.84C463.527,280.559 463.305,279.286 463.166,277.998L462.925,275L462.715,273L462.285,270C462.162,269.001 462.083,268.006 462.039,267L462.004,265L462.001,262C462.008,260.331 462.011,258.663 462.17,257C462.329,255.326 462.645,253.669 462.845,252L463.282,248.045C463.474,246.689 463.75,245.345 464,244L461.842,244.423L460.843,244.743L459.015,245.742L457.184,247.228L455.529,249.044L454.109,251.004L452.919,253L451.98,255L451.61,256L451.304,257L450.819,259C450.533,260.318 450.304,261.657 450.171,263C450.071,263.999 450.045,264.997 450.029,266C450.009,267.333 450.105,268.685 450.326,270C450.612,271.708 451.112,273.397 451.765,275L452.674,276.996L453.225,277.985L453.853,278.957L455.34,280.786L456.188,281.606L457.093,282.347L458.99,283.543L460.84,284.346L461.841,284.617L462.329,284.771L464,285M466,244L466.596,247.16L467.246,251.002C467.517,252.664 467.795,254.318 467.91,256C467.979,256.998 467.987,258 467.996,259L468,262L467.996,266C467.987,267 467.979,268.001 467.91,269C467.773,271.015 467.381,272.994 467.166,275L466.834,278.995C466.681,280.282 466.481,281.562 466.275,282.841L466.183,283.329L466,285L467.671,284.63L469.157,284.14L470.985,283.311L471.911,282.772L473.671,281.442L475.211,279.812L475.891,278.906L476.518,277.96L477.597,275.996C478.067,275.028 478.448,274.024 478.776,273C479.6,270.426 480.026,267.703 479.895,265C479.796,262.966 479.372,260.961 478.841,259C478.283,256.942 477.609,254.878 476.583,253L475.351,251.004L474.606,250.015L472.897,248.109L471.009,246.434L469.16,245.185L467.671,244.471L466,244M510,285L509.673,283.329L509.329,281.84C508.953,280.233 508.536,278.635 508.3,277C508.061,275.343 508.016,273.669 507.914,272L507.715,270L507.424,268C507.288,267 507.158,266.007 507.09,265C507.021,264.003 507.005,262.999 507.005,262L507.039,259L507.17,257C507.279,255.659 507.54,254.332 507.719,253L508.245,249.025L508.461,248.045L509.073,246.159L509.256,245.671L510,244L507.842,244.423L506.843,244.743L505.015,245.742L503.184,247.228L501.529,249.044L500.109,251.004L498.919,253L497.98,255L497.61,256L497.304,257L496.819,259C496.533,260.318 496.304,261.657 496.171,263C496.071,263.999 496.045,264.997 496.029,266C496.009,267.333 496.105,268.685 496.326,270C496.612,271.708 497.112,273.397 497.765,275L498.674,276.996L499.225,277.985L499.853,278.957L501.34,280.786L502.188,281.606L503.093,282.347L504.99,283.543L506.84,284.346L507.841,284.617L508.329,284.771L510,285M512,244L512.099,245.671L512.301,247.16L512.665,249.025C513.107,251.007 513.61,252.976 513.826,255C514.039,256.99 513.998,259.002 514,261L513.961,266L513.83,268C513.721,269.342 513.445,270.664 513.286,272C513.166,273 513.087,273.995 513.025,275C512.942,276.338 512.896,277.67 512.674,278.995C512.33,281.049 511.627,283.021 511,285L513.159,284.54L514.16,284.285L516.01,283.655L516.964,283.231L517.908,282.721L519.671,281.431C521.087,280.186 522.172,278.616 523.095,276.985C524.319,274.824 525.245,272.451 525.671,270C525.845,269.004 525.901,268.008 525.945,267L525.946,266L525.826,264L525.7,263L525.331,261L524.841,259C524.076,256.178 523.053,253.407 521.351,251.004L519.786,249.044L518.897,248.109L517.009,246.434L515.16,245.185L513.671,244.471L512,244Z" style="fill-rule:nonzero;"/>
    </g>
    <g transform="matrix(3.13993,0,0,3.13993,-771.439,-223.306)">
        <path d="M267,246L267,249L267.579,248.125L267.579,246.875L267,246Z" style="fill:rgb(206,194,173);fill-rule:nonzero;"/>
    </g>
    <g transform="matrix(3.13993,0,0,3.13993,-771.439,-223.306)">
        <path d="M287,417L287.429,418.671L288,420.16L288.905,422.025L290.579,425L291.72,427C292.487,428.342 293.24,429.692 294.064,431C295.994,434.064 298.038,437.053 300.141,440L301.579,442L304.475,446C305.748,447.694 307.077,449.345 308.4,451C309.736,452.673 311.061,454.359 312.438,456L314.156,458L316.845,461C318.898,463.332 320.84,465.761 323.039,467.961C324.612,469.533 326.296,470.974 327.995,472.406L329.955,474.032L330.84,474.769L331.841,475.522L332.329,475.929L334,477L333.346,475.344L332.39,473.929L330.852,472.261L329.945,471.42C328.667,470.269 327.368,469.147 326.17,467.91C324.649,466.341 323.296,464.62 321.83,463C319.985,460.961 318.011,459.043 316.17,457C315.286,456.02 314.439,455.01 313.59,454L311.084,451L309.449,449C307.391,446.371 305.386,443.703 303.424,441L301.291,438C299.873,436.01 298.421,434.043 297.079,432L294.576,428L291.425,423.005C290.65,421.771 289.901,420.519 289.07,419.321L288.43,418.517L288.126,418.086L287,417Z" style="fill:rgb(206,194,173);fill-rule:nonzero;"/>
    </g>
    <g transform="matrix(3.13993,0,0,3.13993,-771.439,-223.306)">
        <path d="M623,460L621.329,461.63L619.858,462.986L618.113,464.555L617.316,465.269L616.515,466.118L616.086,466.512L615,468L616.671,467.346L618.155,466.39L619.952,464.87L620.822,464L622.229,462.316L622.647,461.516L622.931,461.086L623,460M613,469L614,470L613,469Z" style="fill:rgb(206,194,173);fill-rule:nonzero;"/>
    </g>
    <g transform="matrix(3.13993,0,0,3.13993,-771.439,-223.306)">
        <path d="M353,492L354,493L353,492M359,496L360,497L359,496M377.667,499.333L378,499.667L378.333,499.667L378.333,499.333L377.667,499.333M365,500L366,501L365,500Z" style="fill:rgb(206,194,173);fill-rule:nonzero;"/>
    </g>
    <g transform="matrix(3.13993,0,0,3.13993,-771.439,-223.306)">
        <path d="M385,503L386,504L385,503M552,504L553.06,504.486L553.472,504.466L554.16,504.549L555.39,504.397L557,504L555.94,503.597L555.528,503.634L554.84,503.58L554.022,503.687L552,504M387,504L388,505L387,504Z" style="fill:rgb(206,194,173);fill-rule:nonzero;"/>
    </g>
    <g transform="matrix(3.13993,0,0,3.13993,-771.439,-223.306)">
        <path d="M399,510L400.086,510.998L400.517,511.229L401.321,511.747C402.509,512.355 403.747,512.846 405,513.302C405.936,513.642 406.887,513.944 407.84,514.234L408.841,514.502L409.329,514.646L411,515L409.914,514.002L409.483,513.77L408.679,513.25C407.802,512.793 406.895,512.394 405.983,512.014C404.73,511.492 403.456,511.014 402.16,510.61L401.159,510.368L400.671,510.225L399,510M415.667,516.333L415.667,516.667L416.333,516.667L416.333,516.333L415.667,516.333M480,516L481.086,516.585L481.517,516.642L482.319,516.839C483.201,516.943 484.088,516.957 484.974,516.986L486.842,516.999L489,517L487.914,516.415L487.483,516.358L486.681,516.161C485.799,516.057 484.912,516.043 484.026,516.014L482.158,516.001L480,516M421,518L421.909,518.585L422.347,518.653L424,519L423.091,518.415L422.653,518.347L421,518M406.667,521.333L407,521.667L407.333,521.667L407.333,521.333L406.667,521.333M409,522L410.086,522.942L410.517,523.15L411.321,523.63L413.059,524.395C414.032,524.781 415.012,525.14 416.001,525.484C416.989,525.827 417.999,526.111 419,526.411L423.998,527.845L425.975,528.331L427.84,528.699L429.329,528.901L431,529L429.914,528.217L429.483,528.043L428.679,527.645L426.941,527.019L424.995,526.424L421,525.291L418,524.421L415.005,523.579L412.16,522.755L411.159,522.495L410.671,522.353L409,522Z" style="fill:rgb(206,194,173);fill-rule:nonzero;"/>
    </g>
    <g transform="matrix(3.13993,0,0,3.13993,-771.439,-223.306)">
        <path d="M538.667,527.333L539,527.667L539.333,527.667L539,527.333L538.667,527.333Z" style="fill:rgb(107,107,107);fill-rule:nonzero;"/>
    </g>
    <g transform="matrix(3.13993,0,0,3.13993,-771.439,-223.306)">
        <path d="M510,528L511.082,528.585L511.492,528.642L512.276,528.839C512.962,528.926 513.658,528.963 514.348,528.985L516,529L514.918,528.415L514.508,528.358L513.724,528.161C513.038,528.074 512.342,528.037 511.652,528.015L510,528M499,529L500.086,529.585L500.515,529.642L501.316,529.839L503.014,529.966L507,530L505.914,529.415L505.485,529.358L504.684,529.161L502.986,529.034L499,529M474,530L475.086,530.585L475.517,530.642L476.321,530.839L478.059,530.966L482,531L493,531L491.914,530.415L491.483,530.358L490.679,530.161L488.941,530.034L485,530L474,530M503,532L504.086,532.585L504.517,532.642L505.321,532.839L507.059,532.951L509.005,532.907C510.349,532.827 511.671,532.617 513,532.41L517.955,531.589L519.841,531.276L520.329,531.183L522,531L520.914,530.419L520.483,530.373L519.679,530.2L517.941,530.204L515.995,530.431L513,530.92C511.018,531.244 509.04,531.599 507.045,531.83C506.258,531.922 505.463,531.96 504.671,531.985L503,532M454,532L455.082,532.585L455.492,532.642L456.276,532.839C456.962,532.926 457.657,532.963 458.348,532.985L460,533L458.918,532.415L458.508,532.358L457.724,532.161C457.038,532.074 456.343,532.037 455.652,532.015L454,532M465,533L466.086,533.585L466.517,533.642L467.321,533.839C468.543,533.982 469.776,533.982 471.005,533.997L477,534L497,534L495.914,533.415L495.483,533.358L494.679,533.161C493.457,533.018 492.224,533.018 490.995,533.003L485,533L465,533Z" style="fill:rgb(206,194,173);fill-rule:nonzero;"/>
    </g>
    <g transform="matrix(1,0,0,1,-460.123,-116.564)">
        <g transform="matrix(158,0,0,158,1727.56,1131.9)">
        </g>
        <text x="634.203px" y="1131.9px" style="font-family:'Century Gothic';font-size:158px;fill:rgb(206,194,173);">NADER CHATTI</text>
    </g>
</svg>
